<?xml version="1.0" standalone="no"?>
<!DOCTYPE svg PUBLIC "-//W3C//DTD SVG 20010904//EN"
 "http://www.w3.org/TR/2001/REC-SVG-20010904/DTD/svg10.dtd">
<svg version="1.0" xmlns="http://www.w3.org/2000/svg"
 width="2000.000000pt" height="2000.000000pt" viewBox="0 0 2000.000000 2000.000000"
 preserveAspectRatio="xMidYMid meet">
<metadata>
Created by potrace 1.14, written by Peter Selinger 2001-2017
</metadata>
<g transform="translate(0.000000,2000.000000) scale(0.100000,-0.100000)"
fill="#000000" stroke="none">
<path d="M5380 16066 c0 -2 53 -50 118 -107 64 -57 131 -116 147 -131 17 -15
41 -36 54 -47 12 -11 55 -49 95 -84 67 -61 270 -240 420 -372 37 -33 78 -69
90 -80 12 -11 54 -48 92 -81 291 -257 551 -487 614 -544 41 -37 95 -84 120
-105 25 -21 68 -58 96 -84 28 -25 84 -75 124 -111 41 -36 95 -83 120 -106 25
-22 59 -52 75 -67 88 -76 279 -245 331 -292 l43 -40 -115 -155 c-64 -85 -178
-238 -253 -340 -76 -102 -210 -282 -298 -400 -87 -118 -249 -336 -359 -485
-110 -148 -259 -349 -330 -445 -72 -96 -177 -238 -234 -315 -57 -77 -147 -198
-200 -270 -53 -71 -170 -229 -260 -350 -203 -274 -273 -367 -283 -380 -4 -5
-96 -129 -204 -275 -107 -146 -210 -284 -227 -307 -17 -23 -39 -52 -48 -65
-40 -55 -128 -174 -136 -183 -4 -5 -19 -25 -32 -44 -14 -18 -119 -161 -235
-316 -206 -278 -534 -720 -607 -820 -20 -27 -41 -54 -45 -60 -5 -5 -61 -82
-126 -170 -65 -88 -124 -167 -131 -175 -6 -8 -50 -67 -96 -130 -47 -63 -90
-122 -97 -130 -6 -8 -105 -141 -219 -295 -114 -154 -281 -379 -371 -500 -542
-730 -706 -952 -715 -968 -9 -17 -7 -18 19 -13 15 3 46 8 68 11 22 3 67 10
100 15 33 5 80 12 105 15 25 3 56 8 70 10 14 2 41 6 60 9 19 3 112 16 205 30
94 14 190 28 215 31 58 7 109 15 140 20 14 2 41 6 62 9 32 4 356 52 418 61 14
2 45 7 70 10 25 3 86 13 136 21 50 8 113 16 140 19 27 3 72 10 99 15 28 5 74
12 104 15 30 4 61 8 70 10 9 1 41 6 71 10 30 4 64 9 75 11 10 2 37 6 60 9 49
7 114 16 136 20 9 2 40 6 69 10 29 4 61 8 72 10 10 2 71 11 136 20 64 9 128
18 141 20 13 2 45 7 70 11 25 4 55 8 66 10 11 2 40 6 65 9 25 3 56 8 70 10 14
3 45 7 70 10 25 3 52 7 60 10 8 2 39 7 69 10 30 4 63 9 75 11 12 2 41 6 66 9
25 3 56 7 70 10 22 3 52 7 140 20 14 2 75 11 135 20 61 9 122 18 136 20 15 3
47 7 70 10 24 3 55 8 69 10 14 2 45 7 70 10 25 3 52 7 60 10 8 2 39 7 69 10
30 4 61 8 70 10 9 1 39 6 66 9 28 4 91 13 140 21 50 7 110 16 135 20 25 3 56
8 70 10 14 2 45 7 70 10 25 3 56 8 70 10 14 2 45 7 70 10 25 4 56 8 70 10 14
2 76 11 138 20 62 9 121 18 131 20 10 2 42 6 71 10 29 4 60 8 69 10 9 1 39 6
66 9 28 4 62 9 78 11 63 11 88 15 197 29 63 9 124 18 135 20 11 2 41 6 66 10
25 4 57 9 70 11 13 2 76 11 139 19 63 9 124 18 136 20 12 2 45 7 74 11 29 4
60 8 69 10 9 1 41 6 71 10 30 4 62 9 71 10 9 2 40 6 70 10 30 4 56 8 59 10 3
2 37 6 75 10 39 4 72 9 75 10 3 2 30 6 60 9 30 4 66 9 80 11 30 5 69 12 127
20 23 3 55 8 70 10 15 2 48 7 73 10 25 4 72 11 105 16 l60 9 300 -300 c165
-164 1042 -1040 1949 -1945 907 -905 1650 -1645 1651 -1643 2 2 12 39 23 83
11 44 43 172 72 285 28 113 53 212 55 220 2 8 14 51 25 95 11 44 23 87 25 95
2 8 45 177 95 375 51 198 94 368 96 377 8 36 14 57 74 292 34 132 63 248 65
259 3 10 7 27 10 37 3 10 8 27 10 37 2 10 32 126 65 258 34 132 63 247 65 255
2 8 29 114 60 235 31 121 58 227 60 235 2 8 29 114 60 235 47 183 73 286 120
475 2 8 36 139 75 290 39 151 73 286 76 300 3 13 16 67 30 120 28 106 125 489
128 505 1 6 5 16 9 23 5 6 6 12 3 12 -2 0 4 30 15 68 11 37 21 76 23 87 2 11
45 182 96 380 51 198 93 367 95 375 2 8 14 58 28 110 14 52 28 106 31 120 3
14 53 210 111 435 58 226 107 419 109 430 3 11 12 48 21 82 9 35 18 72 21 83
6 28 10 44 33 130 27 104 170 665 243 955 33 132 73 288 88 346 16 58 31 117
34 130 2 13 30 123 61 244 31 121 58 227 60 235 2 8 33 132 70 275 118 464
237 930 240 945 2 8 23 94 48 190 59 225 238 930 242 950 2 8 10 40 19 70 8
30 17 66 20 80 2 14 21 88 41 165 20 77 38 147 40 155 2 8 29 114 60 235 32
121 59 232 62 248 l4 27 -5750 0 c-3163 0 -5751 -2 -5751 -4z"/>
<path d="M15345 6804 c-114 -25 -222 -78 -311 -151 -192 -159 -285 -395 -251
-641 29 -213 177 -415 378 -515 132 -66 198 -81 349 -81 140 0 209 15 323 70
186 90 332 264 383 457 19 73 25 203 12 282 -41 264 -237 481 -513 567 -85 26
-278 33 -370 12z m273 -113 c210 -41 383 -185 462 -386 35 -90 38 -264 6 -356
-65 -188 -210 -331 -396 -390 -85 -28 -232 -34 -320 -13 -229 53 -421 245
-458 459 -9 49 -9 177 0 225 27 154 157 322 308 401 113 58 277 83 398 60z"/>
<path d="M15163 6115 l0 -395 94 0 93 0 0 143 0 143 75 -1 75 -1 87 -142 86
-142 103 0 c57 0 104 2 104 4 0 2 -32 53 -70 113 -39 59 -74 118 -80 130 -5
11 -14 24 -19 28 -19 11 -12 33 12 39 12 3 41 21 64 41 102 87 98 291 -9 375
-67 52 -112 59 -374 60 l-241 0 0 -395z m451 240 c75 -36 81 -145 10 -191 -21
-15 -52 -19 -150 -21 l-124 -2 0 114 0 114 28 3 c68 8 204 -2 236 -17z"/>
</g>
</svg>
